# xmcd
#
# Track frame offsets: 
#        150
#        16623
#        34446
#        49344
#        64992
#        82290
#        95613
#        113586
#        131709
#        151407
#        173130
#
# Disc length: 2507 seconds
#
# Revision: 0
# Processed by: cddbd v1.5.2PL0 Copyright (c) Steve Scherf et al.
# Submitted via: ExactAudioCopy v0.99pb5
#
DISCID=9409c90b
DTITLE=LoriAnn - On My Way
DYEAR=2002
DGENRE=Country
TTITLE0=Missing You
TTITLE1=Here Comes the Rain
TTITLE2=On My Way
TTITLE3=I Just Wanna Love You More
TTITLE4=Fender Bender Blues
TTITLE5=Your Kind of Love
TTITLE6=Givin' Up On You
TTITLE7=Closer to Me
TTITLE8=I Stand Alone
TTITLE9=I Feel the Pain
TTITLE10=Maybe Next Time Around
EXTD=
EXTT0=
EXTT1=
EXTT2=
EXTT3=
EXTT4=
EXTT5=
EXTT6=
EXTT7=
EXTT8=
EXTT9=
EXTT10=
PLAYORDER=
